<svg width="70" height="28" viewBox="0 0 70 28" fill="none" xmlns="http://www.w3.org/2000/svg">
<g clip-path="url(#clip0_1_2)">
<path d="M25.8787 13.435L14.565 2.12132C14.1744 1.7308 13.5413 1.7308 13.1508 2.12132L1.83705 13.435C1.44653 13.8256 1.44653 14.4587 1.83705 14.8492L13.1508 26.163C13.5413 26.5535 14.1744 26.5535 14.565 26.163L25.8787 14.8492C26.2692 14.4587 26.2692 13.8256 25.8787 13.435Z" stroke="#606060" stroke-width="2"/>
<path d="M20.2218 13.435L14.565 7.77818C14.1744 7.38766 13.5413 7.38766 13.1508 7.77818L7.4939 13.435C7.10338 13.8256 7.10338 14.4587 7.4939 14.8492L13.1508 20.5061C13.5413 20.8966 14.1744 20.8966 14.565 20.5061L20.2218 14.8492C20.6124 14.4587 20.6124 13.8256 20.2218 13.435Z" stroke="#606060" stroke-width="2"/>
<path d="M38.9629 9.81818V20H37.73V9.81818H38.9629ZM41.2759 20V12.3636H42.4095V13.5568H42.5089C42.668 13.1491 42.9249 12.8326 43.2795 12.6072C43.6341 12.3786 44.06 12.2642 44.5572 12.2642C45.061 12.2642 45.4803 12.3786 45.815 12.6072C46.1531 12.8326 46.4166 13.1491 46.6055 13.5568H46.685C46.8806 13.1624 47.1739 12.8492 47.565 12.6172C47.9561 12.3819 48.4251 12.2642 48.972 12.2642C49.6547 12.2642 50.2132 12.478 50.6474 12.9055C51.0816 13.3298 51.2987 13.991 51.2987 14.8892V20H50.1254V14.8892C50.1254 14.3258 49.9713 13.9231 49.663 13.6811C49.3548 13.4392 48.9919 13.3182 48.5742 13.3182C48.0373 13.3182 47.6214 13.4806 47.3264 13.8054C47.0314 14.1269 46.8839 14.5346 46.8839 15.0284V20H45.6907V14.7699C45.6907 14.3357 45.5499 13.986 45.2681 13.7209C44.9864 13.4524 44.6235 13.3182 44.1794 13.3182C43.8744 13.3182 43.5894 13.3994 43.3242 13.5618C43.0624 13.7242 42.8503 13.9496 42.6879 14.2379C42.5288 14.523 42.4492 14.8527 42.4492 15.2273V20H41.2759ZM53.4439 22.8636V12.3636H54.5774V13.5767H54.7166C54.8028 13.4441 54.9221 13.2751 55.0746 13.0696C55.2304 12.8608 55.4524 12.6752 55.7408 12.5128C56.0325 12.3471 56.4269 12.2642 56.924 12.2642C57.567 12.2642 58.1338 12.425 58.6243 12.7464C59.1148 13.0679 59.4977 13.5237 59.7727 14.1136C60.0478 14.7036 60.1854 15.3996 60.1854 16.2017C60.1854 17.0104 60.0478 17.7114 59.7727 18.3047C59.4977 18.8946 59.1165 19.352 58.6293 19.6768C58.1421 19.9983 57.5803 20.1591 56.9439 20.1591C56.4534 20.1591 56.0606 20.0779 55.7656 19.9155C55.4707 19.7498 55.2436 19.5625 55.0845 19.3537C54.9254 19.1416 54.8028 18.9659 54.7166 18.8267H54.6172V22.8636H53.4439ZM54.5973 16.1818C54.5973 16.7585 54.6818 17.2673 54.8509 17.7081C55.0199 18.1456 55.2668 18.4886 55.5916 18.7372C55.9165 18.9825 56.3142 19.1051 56.7848 19.1051C57.2754 19.1051 57.6847 18.9759 58.0128 18.7173C58.3442 18.4555 58.5928 18.1042 58.7585 17.6634C58.9276 17.2192 59.0121 16.7254 59.0121 16.1818C59.0121 15.6449 58.9292 15.161 58.7635 14.7301C58.6011 14.2959 58.3542 13.9529 58.0227 13.701C57.6946 13.4458 57.282 13.3182 56.7848 13.3182C56.3075 13.3182 55.9065 13.4392 55.5817 13.6811C55.2569 13.9197 55.0116 14.2545 54.8459 14.6854C54.6802 15.1129 54.5973 15.6117 54.5973 16.1818ZM65.1769 20.1591C64.4411 20.1591 63.8064 19.9967 63.2727 19.6719C62.7424 19.3438 62.3331 18.8864 62.0448 18.2997C61.7597 17.7098 61.6172 17.0237 61.6172 16.2415C61.6172 15.4593 61.7597 14.7699 62.0448 14.1733C62.3331 13.5734 62.7342 13.1061 63.2479 12.7713C63.7649 12.4332 64.3682 12.2642 65.0575 12.2642C65.4553 12.2642 65.848 12.3305 66.2358 12.4631C66.6236 12.5956 66.9766 12.8111 67.2948 13.1094C67.6129 13.4044 67.8665 13.7955 68.0554 14.2827C68.2443 14.7699 68.3388 15.3698 68.3388 16.0824V16.5795H62.4524V15.5653H67.1456C67.1456 15.1345 67.0594 14.75 66.8871 14.4119C66.7181 14.0739 66.4761 13.8071 66.1612 13.6115C65.8497 13.416 65.4818 13.3182 65.0575 13.3182C64.5902 13.3182 64.1859 13.4342 63.8445 13.6662C63.5064 13.8949 63.2462 14.1932 63.0639 14.5611C62.8816 14.929 62.7905 15.3234 62.7905 15.7443V16.4205C62.7905 16.9972 62.8899 17.486 63.0888 17.8871C63.291 18.2848 63.571 18.5881 63.929 18.7969C64.287 19.0024 64.7029 19.1051 65.1769 19.1051C65.4851 19.1051 65.7635 19.062 66.0121 18.9759C66.264 18.8864 66.4811 18.7538 66.6634 18.5781C66.8457 18.3991 66.9865 18.1771 67.086 17.9119L68.2195 18.2301C68.1002 18.6146 67.8996 18.9527 67.6179 19.2443C67.3362 19.5327 66.9882 19.758 66.5739 19.9205C66.1596 20.0795 65.6939 20.1591 65.1769 20.1591ZM64.461 11.3295L65.674 9.02273H67.0462L65.495 11.3295H64.461ZM70.1236 20V12.3636H71.2571V13.517H71.3367C71.4759 13.1392 71.7278 12.8326 72.0923 12.5973C72.4569 12.362 72.8679 12.2443 73.3253 12.2443C73.4115 12.2443 73.5192 12.246 73.6485 12.2493C73.7777 12.2526 73.8755 12.2576 73.9418 12.2642V13.4574C73.902 13.4474 73.8109 13.4325 73.6683 13.4126C73.5291 13.3894 73.3816 13.3778 73.2259 13.3778C72.8547 13.3778 72.5232 13.4557 72.2316 13.6115C71.9432 13.764 71.7145 13.9761 71.5455 14.2479C71.3798 14.5163 71.2969 14.8229 71.2969 15.1676V20H70.1236ZM75.3326 20V12.3636H76.5059V20H75.3326ZM75.9292 11.0909C75.7005 11.0909 75.5033 11.013 75.3376 10.8572C75.1752 10.7015 75.0939 10.5142 75.0939 10.2955C75.0939 10.0767 75.1752 9.88944 75.3376 9.73366C75.5033 9.57789 75.7005 9.5 75.9292 9.5C76.1579 9.5 76.3534 9.57789 76.5158 9.73366C76.6815 9.88944 76.7644 10.0767 76.7644 10.2955C76.7644 10.5142 76.6815 10.7015 76.5158 10.8572C76.3534 11.013 76.1579 11.0909 75.9292 11.0909ZM81.7571 20.1591C81.0677 20.1591 80.4629 19.995 79.9425 19.6669C79.4254 19.3388 79.0211 18.8797 78.7294 18.2898C78.4411 17.6998 78.2969 17.0104 78.2969 16.2216C78.2969 15.4261 78.4411 14.7318 78.7294 14.1385C79.0211 13.5452 79.4254 13.0845 79.9425 12.7564C80.4629 12.4283 81.0677 12.2642 81.7571 12.2642C82.4465 12.2642 83.0497 12.4283 83.5668 12.7564C84.0871 13.0845 84.4915 13.5452 84.7798 14.1385C85.0715 14.7318 85.2173 15.4261 85.2173 16.2216C85.2173 17.0104 85.0715 17.6998 84.7798 18.2898C84.4915 18.8797 84.0871 19.3388 83.5668 19.6669C83.0497 19.995 82.4465 20.1591 81.7571 20.1591ZM81.7571 19.1051C82.2808 19.1051 82.7117 18.9709 83.0497 18.7024C83.3878 18.4339 83.638 18.081 83.8004 17.6435C83.9629 17.206 84.0441 16.732 84.0441 16.2216C84.0441 15.7112 83.9629 15.2356 83.8004 14.7947C83.638 14.3539 83.3878 13.9976 83.0497 13.7259C82.7117 13.4541 82.2808 13.3182 81.7571 13.3182C81.2334 13.3182 80.8026 13.4541 80.4645 13.7259C80.1264 13.9976 79.8762 14.3539 79.7138 14.7947C79.5514 15.2356 79.4702 15.7112 79.4702 16.2216C79.4702 16.732 79.5514 17.206 79.7138 17.6435C79.8762 18.081 80.1264 18.4339 80.4645 18.7024C80.8026 18.9709 81.2334 19.1051 81.7571 19.1051Z" fill="#1F2128"/>
</g>
<defs>
<clipPath id="clip0_1_2">
<rect width="70" height="28" fill="white"/>
</clipPath>
</defs>
</svg>
