<svg width="111" height="28" viewBox="0 0 111 28" fill="none" xmlns="http://www.w3.org/2000/svg">
<path d="M25.3178 12.4444L16.0297 3.55556C15.7091 3.24873 15.1893 3.24873 14.8687 3.55556L5.58051 12.4444C5.2599 12.7513 5.2599 13.2487 5.58051 13.5556L14.8687 22.4444C15.1893 22.7513 15.7091 22.7513 16.0297 22.4444L25.3178 13.5556C25.6384 13.2487 25.6384 12.7513 25.3178 12.4444Z" stroke="#606060" stroke-width="2"/>
<path d="M20.6738 12.4444L16.0297 8C15.7091 7.69317 15.1893 7.69317 14.8687 8L10.2246 12.4444C9.90398 12.7513 9.90398 13.2487 10.2246 13.5556L14.8687 18C15.1893 18.3068 15.7091 18.3068 16.0297 18L20.6738 13.5556C20.9944 13.2487 20.9944 12.7513 20.6738 12.4444Z" stroke="#606060" stroke-width="2"/>
<path d="M36.4659 8.81818V19H35.233V8.81818H36.4659ZM38.7789 19V11.3636H39.9125V12.5568H40.0119C40.171 12.1491 40.4279 11.8326 40.7825 11.6072C41.1371 11.3786 41.563 11.2642 42.0602 11.2642C42.564 11.2642 42.9833 11.3786 43.318 11.6072C43.6561 11.8326 43.9196 12.1491 44.1085 12.5568H44.188C44.3836 12.1624 44.6769 11.8492 45.068 11.6172C45.4591 11.3819 45.9281 11.2642 46.475 11.2642C47.1577 11.2642 47.7162 11.478 48.1504 11.9055C48.5846 12.3298 48.8017 12.991 48.8017 13.8892V19H47.6284V13.8892C47.6284 13.3258 47.4743 12.9231 47.166 12.6811C46.8578 12.4392 46.4949 12.3182 46.0772 12.3182C45.5403 12.3182 45.1243 12.4806 44.8294 12.8054C44.5344 13.1269 44.3869 13.5346 44.3869 14.0284V19H43.1937V13.7699C43.1937 13.3357 43.0529 12.986 42.7711 12.7209C42.4894 12.4524 42.1265 12.3182 41.6824 12.3182C41.3774 12.3182 41.0924 12.3994 40.8272 12.5618C40.5654 12.7242 40.3533 12.9496 40.1909 13.2379C40.0318 13.523 39.9522 13.8527 39.9522 14.2273V19H38.7789ZM50.9469 21.8636V11.3636H52.0804V12.5767H52.2196C52.3058 12.4441 52.4251 12.2751 52.5776 12.0696C52.7334 11.8608 52.9554 11.6752 53.2438 11.5128C53.5355 11.3471 53.9299 11.2642 54.427 11.2642C55.07 11.2642 55.6368 11.425 56.1273 11.7464C56.6178 12.0679 57.0007 12.5237 57.2757 13.1136C57.5508 13.7036 57.6884 14.3996 57.6884 15.2017C57.6884 16.0104 57.5508 16.7114 57.2757 17.3047C57.0007 17.8946 56.6195 18.352 56.1323 18.6768C55.6451 18.9983 55.0833 19.1591 54.4469 19.1591C53.9564 19.1591 53.5636 19.0779 53.2686 18.9155C52.9737 18.7498 52.7466 18.5625 52.5875 18.3537C52.4284 18.1416 52.3058 17.9659 52.2196 17.8267H52.1202V21.8636H50.9469ZM52.1003 15.1818C52.1003 15.7585 52.1848 16.2673 52.3539 16.7081C52.5229 17.1456 52.7698 17.4886 53.0946 17.7372C53.4194 17.9825 53.8172 18.1051 54.2878 18.1051C54.7784 18.1051 55.1877 17.9759 55.5158 17.7173C55.8472 17.4555 56.0958 17.1042 56.2615 16.6634C56.4306 16.2192 56.5151 15.7254 56.5151 15.1818C56.5151 14.6449 56.4322 14.161 56.2665 13.7301C56.1041 13.2959 55.8572 12.9529 55.5257 12.701C55.1976 12.4458 54.785 12.3182 54.2878 12.3182C53.8105 12.3182 53.4095 12.4392 53.0847 12.6811C52.7599 12.9197 52.5146 13.2545 52.3489 13.6854C52.1832 14.1129 52.1003 14.6117 52.1003 15.1818ZM62.6799 19.1591C61.9441 19.1591 61.3094 18.9967 60.7757 18.6719C60.2454 18.3438 59.8361 17.8864 59.5478 17.2997C59.2627 16.7098 59.1202 16.0237 59.1202 15.2415C59.1202 14.4593 59.2627 13.7699 59.5478 13.1733C59.8361 12.5734 60.2372 12.1061 60.7509 11.7713C61.2679 11.4332 61.8712 11.2642 62.5605 11.2642C62.9583 11.2642 63.351 11.3305 63.7388 11.4631C64.1266 11.5956 64.4796 11.8111 64.7978 12.1094C65.1159 12.4044 65.3695 12.7955 65.5584 13.2827C65.7473 13.7699 65.8418 14.3698 65.8418 15.0824V15.5795H59.9554V14.5653H64.6486C64.6486 14.1345 64.5624 13.75 64.3901 13.4119C64.2211 13.0739 63.9791 12.8071 63.6642 12.6115C63.3527 12.416 62.9848 12.3182 62.5605 12.3182C62.0932 12.3182 61.6889 12.4342 61.3475 12.6662C61.0094 12.8949 60.7492 13.1932 60.5669 13.5611C60.3846 13.929 60.2935 14.3234 60.2935 14.7443V15.4205C60.2935 15.9972 60.3929 16.486 60.5918 16.8871C60.794 17.2848 61.074 17.5881 61.432 17.7969C61.79 18.0024 62.2059 18.1051 62.6799 18.1051C62.9881 18.1051 63.2665 18.062 63.5151 17.9759C63.767 17.8864 63.9841 17.7538 64.1664 17.5781C64.3487 17.3991 64.4895 17.1771 64.589 16.9119L65.7225 17.2301C65.6032 17.6146 65.4026 17.9527 65.1209 18.2443C64.8392 18.5327 64.4912 18.758 64.0769 18.9205C63.6626 19.0795 63.1969 19.1591 62.6799 19.1591ZM61.964 10.3295L63.177 8.02273H64.5492L62.998 10.3295H61.964ZM67.6266 19V11.3636H68.7601V12.517H68.8397C68.9789 12.1392 69.2308 11.8326 69.5953 11.5973C69.9599 11.362 70.3709 11.2443 70.8283 11.2443C70.9145 11.2443 71.0222 11.246 71.1515 11.2493C71.2807 11.2526 71.3785 11.2576 71.4448 11.2642V12.4574C71.405 12.4474 71.3139 12.4325 71.1713 12.4126C71.0321 12.3894 70.8846 12.3778 70.7289 12.3778C70.3577 12.3778 70.0262 12.4557 69.7346 12.6115C69.4462 12.764 69.2175 12.9761 69.0485 13.2479C68.8828 13.5163 68.7999 13.8229 68.7999 14.1676V19H67.6266ZM72.8356 19V11.3636H74.0089V19H72.8356ZM73.4322 10.0909C73.2035 10.0909 73.0063 10.013 72.8406 9.85724C72.6781 9.70147 72.5969 9.5142 72.5969 9.29545C72.5969 9.0767 72.6781 8.88944 72.8406 8.73366C73.0063 8.57789 73.2035 8.5 73.4322 8.5C73.6609 8.5 73.8564 8.57789 74.0188 8.73366C74.1845 8.88944 74.2674 9.0767 74.2674 9.29545C74.2674 9.5142 74.1845 9.70147 74.0188 9.85724C73.8564 10.013 73.6609 10.0909 73.4322 10.0909ZM79.2601 19.1591C78.5707 19.1591 77.9659 18.995 77.4455 18.6669C76.9284 18.3388 76.5241 17.8797 76.2324 17.2898C75.9441 16.6998 75.7999 16.0104 75.7999 15.2216C75.7999 14.4261 75.9441 13.7318 76.2324 13.1385C76.5241 12.5452 76.9284 12.0845 77.4455 11.7564C77.9659 11.4283 78.5707 11.2642 79.2601 11.2642C79.9495 11.2642 80.5527 11.4283 81.0698 11.7564C81.5901 12.0845 81.9945 12.5452 82.2828 13.1385C82.5745 13.7318 82.7203 14.4261 82.7203 15.2216C82.7203 16.0104 82.5745 16.6998 82.2828 17.2898C81.9945 17.8797 81.5901 18.3388 81.0698 18.6669C80.5527 18.995 79.9495 19.1591 79.2601 19.1591ZM79.2601 18.1051C79.7838 18.1051 80.2147 17.9709 80.5527 17.7024C80.8908 17.4339 81.141 17.081 81.3034 16.6435C81.4659 16.206 81.5471 15.732 81.5471 15.2216C81.5471 14.7112 81.4659 14.2356 81.3034 13.7947C81.141 13.3539 80.8908 12.9976 80.5527 12.7259C80.2147 12.4541 79.7838 12.3182 79.2601 12.3182C78.7364 12.3182 78.3056 12.4541 77.9675 12.7259C77.6294 12.9976 77.3792 13.3539 77.2168 13.7947C77.0544 14.2356 76.9732 14.7112 76.9732 15.2216C76.9732 15.732 77.0544 16.206 77.2168 16.6435C77.3792 17.081 77.6294 17.4339 77.9675 17.7024C78.3056 17.9709 78.7364 18.1051 79.2601 18.1051Z" fill="#1F2128"/>
</svg>
